<svg width="584" height="237" viewBox="0 0 584 237" fill="none" xmlns="http://www.w3.org/2000/svg">
<path d="M105.232 190L101.272 176.392C100.408 173.62 99.9764 172.756 99.2204 172.468V172H104.404V172.468C103.288 172.756 103.36 173.62 104.224 176.392L107.284 187.084L112.468 172H113.836L119.056 187.048L122.152 176.392C122.404 175.564 122.512 174.844 122.512 174.268C122.512 173.224 122.116 172.612 121.324 172.468V172H124.996V172.468C123.952 172.792 123.556 173.584 122.692 176.392L118.732 190H117.112L111.964 175.06L106.816 190H105.232ZM140.881 190H137.749C137.029 190 136.669 189.64 136.669 188.92V182.44C135.517 186.868 132.565 190.36 128.965 190.36C126.301 190.36 123.925 188.704 123.925 185.644C123.925 181.936 127.705 180.46 131.989 179.308L136.669 178.048C136.489 174.556 134.689 172.936 131.629 172.936C129.469 172.936 127.417 173.944 125.581 176.14L125.257 175.852C127.309 173.26 129.901 171.748 133.069 171.748C137.425 171.748 139.441 174.16 139.441 178.228V185.428C139.441 188.38 139.765 189.244 140.881 189.532V190ZM126.625 184.636C126.625 186.976 128.245 188.236 130.297 188.236C134.113 188.236 136.669 183.376 136.669 179.596V178.516L132.133 179.74C129.433 180.496 126.625 181.648 126.625 184.636ZM149.848 190.324C146.968 190.324 144.484 189.496 143.296 188.668L142.972 184.312L143.296 184.24C144.844 187.696 147.328 189.712 150.64 189.748C152.908 189.748 154.528 188.416 154.528 186.4C154.528 183.844 152.008 182.944 149.236 182.08C145.816 181.036 143.368 180.028 143.368 176.788C143.368 173.944 145.744 171.748 149.92 171.748C152.26 171.748 154.384 172.252 155.5 172.72L155.644 176.392L155.284 176.464C154.132 173.872 151.864 172.216 149.272 172.216C146.824 172.216 145.24 173.404 145.24 175.24C145.24 177.544 147.508 178.408 150.388 179.38C153.124 180.244 156.436 181.144 156.436 184.708C156.436 187.696 154.168 190.324 149.848 190.324Z" fill="black"/>
<path d="M251.804 190V189.532C252.92 189.244 253.244 188.38 253.244 185.428V172.756H251.156L251.336 172.252H253.244C253.532 166.888 258.464 161.92 264.332 161.92C265.952 161.92 266.78 162.244 266.78 162.856C266.78 163.54 265.88 164.944 264.404 164.944C262.784 164.944 261.236 164.44 259.184 163.72C257.96 164.368 256.052 165.592 256.052 170.092V172.252H260.768L260.552 172.756H256.052V185.428C256.052 188.38 256.376 189.244 257.492 189.532V190H251.804ZM261.406 190V189.532C262.522 189.244 262.846 188.38 262.846 185.428V177.148C262.846 174.664 262.378 174.232 261.406 173.836V173.44L265.33 171.712L265.654 171.964V176.464C266.806 173.62 269.254 171.748 272.386 171.748C273.826 171.748 274.726 172.108 274.726 172.72C274.726 173.476 273.934 174.772 272.638 174.772C271.666 174.772 270.298 174.376 268.138 173.764C267.13 174.52 265.798 176.536 265.69 178.264H265.654V185.428C265.654 188.38 265.978 189.244 267.094 189.532V190H261.406ZM283.261 190.36C278.689 190.36 273.829 187.516 273.829 181.252C273.829 175.636 278.329 171.748 283.261 171.748C287.725 171.748 292.657 174.448 292.657 180.892C292.657 187.048 287.509 190.36 283.261 190.36ZM276.601 179.2C276.601 183.772 279.553 189.604 284.341 189.604C288.229 189.604 289.921 186.508 289.921 183.016C289.921 178.984 287.041 172.432 282.289 172.432H281.929C278.293 172.54 276.601 175.6 276.601 179.2ZM294.262 190V189.532C295.378 189.244 295.702 188.38 295.702 185.428V177.148C295.702 174.664 295.234 174.232 294.262 173.836V173.44L298.186 171.712L298.51 171.964V175.024C300.67 173.296 303.37 171.748 305.962 171.748C308.662 171.748 310.354 172.864 310.966 175.132C313.162 173.404 315.862 171.748 318.598 171.748C322.09 171.748 323.89 173.656 323.89 177.724V185.428C323.89 188.38 324.214 189.244 325.33 189.532V190H319.642V189.532C320.758 189.244 321.082 188.38 321.082 185.428V178.372C321.082 174.772 319.822 172.936 316.978 172.936C314.926 172.936 313.09 174.052 311.074 175.6C311.218 176.212 311.29 176.896 311.29 177.724V185.428C311.29 188.38 311.614 189.244 312.73 189.532V190H307.042V189.532C308.158 189.244 308.482 188.38 308.482 185.428V178.372C308.482 174.736 307.114 172.936 304.378 172.936C302.326 172.936 300.49 174.052 298.51 175.528V185.428C298.51 188.38 298.834 189.244 299.95 189.532V190H294.262Z" fill="black"/>
<path d="M176.72 131C175.654 131 175.12 130.467 175.12 129.4V114.12C174.427 116.733 173.467 119.133 172.24 121.32C171.014 123.453 169.6 125.293 168 126.84C166.4 128.387 164.667 129.613 162.8 130.52C160.934 131.373 159.067 131.8 157.2 131.8C155.707 131.8 154.267 131.587 152.88 131.16C151.494 130.733 150.24 130.093 149.12 129.24C148.054 128.333 147.2 127.24 146.56 125.96C145.92 124.627 145.6 123.08 145.6 121.32C145.6 119.24 146.08 117.453 147.04 115.96C148 114.467 149.28 113.213 150.88 112.2C152.534 111.133 154.427 110.227 156.56 109.48C158.694 108.733 160.907 108.067 163.2 107.48L175.04 104.36C174.774 100.467 173.68 97.5333 171.76 95.56C169.84 93.5333 166.96 92.52 163.12 92.52C160.56 92.52 158.08 93.16 155.68 94.44C153.28 95.6667 151.12 97.5333 149.2 100.04L148.48 99.48C150.827 96.4933 153.36 94.2533 156.08 92.76C158.854 91.2133 161.92 90.44 165.28 90.44C170.134 90.44 173.68 91.6933 175.92 94.2C178.16 96.7067 179.28 100.04 179.28 104.2V120.84C179.28 122.653 179.334 124.147 179.44 125.32C179.6 126.44 179.787 127.347 180 128.04C180.267 128.68 180.614 129.16 181.04 129.48C181.467 129.747 181.947 129.96 182.48 130.12V131H176.72ZM150 119.72C150.054 122.28 150.88 124.36 152.48 125.96C154.08 127.507 156.267 128.28 159.04 128.28C161.387 128.28 163.52 127.693 165.44 126.52C167.414 125.293 169.12 123.72 170.56 121.8C172 119.88 173.12 117.72 173.92 115.32C174.72 112.92 175.12 110.52 175.12 108.12V105.32L163.52 108.36C161.44 108.893 159.547 109.507 157.84 110.2C156.187 110.84 154.774 111.613 153.6 112.52C152.427 113.373 151.52 114.387 150.88 115.56C150.294 116.733 150 118.12 150 119.72ZM197.742 153.16C195.928 153.16 194.195 152.947 192.542 152.52C190.942 152.147 189.528 151.533 188.302 150.68C187.075 149.88 186.088 148.84 185.342 147.56C184.648 146.28 184.302 144.787 184.302 143.08C184.302 140.307 185.342 137.8 187.422 135.56C189.555 133.373 192.275 131.24 195.582 129.16C193.715 128.733 192.195 128.12 191.022 127.32C189.848 126.467 189.262 125.187 189.262 123.48C189.262 122.733 189.422 122.04 189.742 121.4C190.115 120.76 190.568 120.2 191.102 119.72C191.635 119.187 192.222 118.707 192.862 118.28C193.502 117.8 194.088 117.373 194.622 117C192.702 115.933 191.102 114.467 189.822 112.6C188.542 110.68 187.902 108.253 187.902 105.32C187.902 103.24 188.328 101.293 189.182 99.48C190.088 97.6667 191.262 96.0933 192.702 94.76C194.142 93.4267 195.768 92.3867 197.582 91.64C199.448 90.84 201.342 90.44 203.262 90.44C205.235 90.44 207.182 90.76 209.102 91.4C210.328 89.5867 211.902 88.1733 213.822 87.16C215.795 86.1467 217.848 85.64 219.982 85.64C221.208 85.64 222.115 85.8 222.702 86.12C223.342 86.44 223.662 86.84 223.662 87.32C223.662 87.96 223.262 88.6533 222.462 89.4C221.715 90.0933 220.728 90.44 219.502 90.44C218.488 90.44 217.422 90.3067 216.302 90.04C215.182 89.7733 213.955 89.4533 212.622 89.08C212.195 89.4 211.742 89.7733 211.262 90.2C210.835 90.6267 210.408 91.1333 209.982 91.72C211.155 92.2 212.248 92.8133 213.262 93.56C214.328 94.2533 215.235 95.1333 215.982 96.2C216.782 97.2133 217.395 98.4133 217.822 99.8C218.302 101.133 218.542 102.653 218.542 104.36C218.542 106.76 218.035 108.893 217.022 110.76C216.062 112.573 214.835 114.12 213.342 115.4C211.848 116.627 210.195 117.587 208.382 118.28C206.622 118.92 204.915 119.24 203.262 119.24C201.982 119.24 200.675 119.107 199.342 118.84C198.008 118.52 196.728 118.067 195.502 117.48C194.435 118.28 193.555 118.947 192.862 119.48C192.222 120.013 191.928 120.733 191.982 121.64C191.982 122.333 192.248 122.92 192.782 123.4C193.315 123.88 193.982 124.28 194.782 124.6C195.635 124.92 196.595 125.16 197.662 125.32C198.782 125.48 199.928 125.587 201.102 125.64L210.462 126.2C212.488 126.307 214.302 126.467 215.902 126.68C217.555 126.893 218.968 127.293 220.142 127.88C221.368 128.413 222.302 129.187 222.942 130.2C223.582 131.16 223.902 132.493 223.902 134.2C223.902 136.6 223.075 138.92 221.422 141.16C219.822 143.453 217.742 145.48 215.182 147.24C212.622 149.053 209.795 150.493 206.702 151.56C203.608 152.627 200.622 153.16 197.742 153.16ZM192.062 102.76C192.062 104.627 192.355 106.493 192.942 108.36C193.582 110.173 194.462 111.8 195.582 113.24C196.702 114.68 198.035 115.853 199.582 116.76C201.128 117.613 202.808 118.04 204.622 118.04C206.222 118.04 207.635 117.773 208.862 117.24C210.088 116.653 211.102 115.853 211.902 114.84C212.755 113.827 213.395 112.653 213.822 111.32C214.248 109.987 214.462 108.547 214.462 107C214.462 105.187 214.142 103.373 213.502 101.56C212.915 99.6933 212.088 98.04 211.022 96.6C209.955 95.1067 208.648 93.9067 207.102 93C205.608 92.04 203.928 91.56 202.062 91.56C198.755 91.56 196.248 92.6267 194.542 94.76C192.888 96.8933 192.062 99.56 192.062 102.76ZM188.382 141.24C188.382 142.52 188.622 143.72 189.102 144.84C189.635 146.013 190.408 147.053 191.422 147.96C192.488 148.867 193.822 149.587 195.422 150.12C197.022 150.653 198.915 150.92 201.102 150.92C203.395 150.92 205.742 150.493 208.142 149.64C210.595 148.84 212.808 147.747 214.782 146.36C216.755 145.027 218.355 143.48 219.582 141.72C220.862 140.013 221.502 138.253 221.502 136.44C221.502 135.16 221.208 134.147 220.622 133.4C220.088 132.653 219.315 132.067 218.302 131.64C217.288 131.213 216.062 130.92 214.622 130.76C213.235 130.547 211.688 130.387 209.982 130.28L200.542 129.72C199.902 129.667 199.262 129.613 198.622 129.56C198.035 129.507 197.448 129.427 196.862 129.32C193.875 131.187 191.715 133.107 190.382 135.08C189.048 137.053 188.382 139.107 188.382 141.24ZM227.079 130.12C227.666 129.96 228.146 129.747 228.519 129.48C228.946 129.16 229.266 128.68 229.479 128.04C229.746 127.347 229.932 126.44 230.039 125.32C230.199 124.147 230.279 122.653 230.279 120.84V102.44C230.279 100.787 230.226 99.48 230.119 98.52C230.012 97.56 229.826 96.8133 229.559 96.28C229.346 95.6933 229.026 95.2667 228.599 95C228.172 94.68 227.666 94.3867 227.079 94.12V93.4L233.879 90.44L234.439 90.92V97.88C236.892 95.8533 239.639 94.12 242.679 92.68C245.719 91.1867 248.786 90.44 251.879 90.44C256.092 90.44 259.319 91.72 261.559 94.28C263.799 96.7867 264.919 100.413 264.919 105.16V120.84C264.919 122.653 264.972 124.147 265.079 125.32C265.239 126.44 265.426 127.347 265.639 128.04C265.906 128.68 266.252 129.16 266.679 129.48C267.106 129.747 267.586 129.96 268.119 130.12V131H257.559V130.12C258.146 129.96 258.626 129.747 258.999 129.48C259.426 129.16 259.746 128.68 259.959 128.04C260.226 127.347 260.412 126.44 260.519 125.32C260.679 124.147 260.759 122.653 260.759 120.84V106.84C260.759 102.04 259.746 98.4667 257.719 96.12C255.746 93.72 252.679 92.52 248.519 92.52C245.959 92.52 243.452 93.2133 240.999 94.6C238.546 95.9333 236.359 97.4267 234.439 99.08V120.84C234.439 122.653 234.492 124.147 234.599 125.32C234.759 126.44 234.946 127.347 235.159 128.04C235.426 128.68 235.772 129.16 236.199 129.48C236.626 129.747 237.106 129.96 237.639 130.12V131H227.079V130.12ZM288.529 131.72C284.369 131.72 281.222 130.467 279.089 127.96C277.009 125.4 275.969 121.96 275.969 117.64V102.44C275.969 100.787 275.916 99.48 275.809 98.52C275.702 97.56 275.516 96.8133 275.249 96.28C275.036 95.6933 274.716 95.2667 274.289 95C273.862 94.68 273.356 94.3867 272.769 94.12V93.4L279.569 90.44L280.129 90.92V115.8C280.129 120.707 281.036 124.2 282.849 126.28C284.716 128.36 287.329 129.4 290.689 129.4C292.182 129.4 293.596 129.187 294.929 128.76C296.262 128.28 297.516 127.693 298.689 127C299.862 126.253 300.929 125.427 301.889 124.52C302.902 123.613 303.809 122.68 304.609 121.72V102.44C304.609 100.787 304.556 99.48 304.449 98.52C304.342 97.56 304.156 96.8133 303.889 96.28C303.676 95.6933 303.356 95.2667 302.929 95C302.502 94.68 301.996 94.3867 301.409 94.12V93.4L308.209 90.44L308.769 90.92V120.84C308.769 122.653 308.822 124.147 308.929 125.32C309.089 126.44 309.276 127.347 309.489 128.04C309.756 128.68 310.102 129.16 310.529 129.48C310.956 129.747 311.436 129.96 311.969 130.12V131H306.609C305.862 131 305.329 130.813 305.009 130.44C304.742 130.013 304.609 129.133 304.609 127.8V123.16C303.702 124.12 302.662 125.107 301.489 126.12C300.369 127.133 299.116 128.067 297.729 128.92C296.396 129.72 294.956 130.387 293.409 130.92C291.862 131.453 290.236 131.72 288.529 131.72ZM318.815 130.12C319.401 129.96 319.881 129.747 320.255 129.48C320.681 129.16 321.001 128.68 321.215 128.04C321.481 127.347 321.668 126.44 321.775 125.32C321.935 124.147 322.015 122.653 322.015 120.84V78.44C322.015 76.7867 321.961 75.48 321.855 74.52C321.748 73.56 321.561 72.8133 321.295 72.28C321.081 71.6933 320.761 71.2667 320.335 71C319.908 70.68 319.401 70.3867 318.815 70.12V69.4L325.615 66.44L326.175 66.92V120.84C326.175 122.653 326.228 124.147 326.335 125.32C326.495 126.44 326.681 127.347 326.895 128.04C327.161 128.68 327.508 129.16 327.935 129.48C328.361 129.747 328.841 129.96 329.375 130.12V131H318.815V130.12ZM367.658 131C366.591 131 366.058 130.467 366.058 129.4V114.12C365.365 116.733 364.405 119.133 363.178 121.32C361.951 123.453 360.538 125.293 358.938 126.84C357.338 128.387 355.605 129.613 353.738 130.52C351.871 131.373 350.005 131.8 348.138 131.8C346.645 131.8 345.205 131.587 343.818 131.16C342.431 130.733 341.178 130.093 340.058 129.24C338.991 128.333 338.138 127.24 337.498 125.96C336.858 124.627 336.538 123.08 336.538 121.32C336.538 119.24 337.018 117.453 337.978 115.96C338.938 114.467 340.218 113.213 341.818 112.2C343.471 111.133 345.365 110.227 347.498 109.48C349.631 108.733 351.845 108.067 354.138 107.48L365.978 104.36C365.711 100.467 364.618 97.5333 362.698 95.56C360.778 93.5333 357.898 92.52 354.058 92.52C351.498 92.52 349.018 93.16 346.618 94.44C344.218 95.6667 342.058 97.5333 340.138 100.04L339.418 99.48C341.765 96.4933 344.298 94.2533 347.018 92.76C349.791 91.2133 352.858 90.44 356.218 90.44C361.071 90.44 364.618 91.6933 366.858 94.2C369.098 96.7067 370.218 100.04 370.218 104.2V120.84C370.218 122.653 370.271 124.147 370.378 125.32C370.538 126.44 370.725 127.347 370.938 128.04C371.205 128.68 371.551 129.16 371.978 129.48C372.405 129.747 372.885 129.96 373.418 130.12V131H367.658ZM340.938 119.72C340.991 122.28 341.818 124.36 343.418 125.96C345.018 127.507 347.205 128.28 349.978 128.28C352.325 128.28 354.458 127.693 356.378 126.52C358.351 125.293 360.058 123.72 361.498 121.8C362.938 119.88 364.058 117.72 364.858 115.32C365.658 112.92 366.058 110.52 366.058 108.12V105.32L354.458 108.36C352.378 108.893 350.485 109.507 348.778 110.2C347.125 110.84 345.711 111.613 344.538 112.52C343.365 113.373 342.458 114.387 341.818 115.56C341.231 116.733 340.938 118.12 340.938 119.72Z" fill="black"/>
<path d="M113.6 136.2C111.467 136.2 109.534 135.8 107.8 135C106.067 134.067 105.2 132.133 105.2 129.2C105.2 126.667 106.534 123 109.2 118.2C111.867 113.4 115.467 107.933 120 101.8C124.534 95.5333 129.534 89 135 82.2C140.6 75.4 146.334 68.8 152.2 62.4C158.067 55.8667 163.667 49.8667 169 44.4C174.334 38.8 179.067 34.1333 183.2 30.4C187.334 26.6667 190.4 24.3333 192.4 23.4C193.067 23.1333 193.534 23.1333 193.8 23.4C194.067 23.5333 193.734 23.8 192.8 24.2C188.8 26.0667 183.934 29.2667 178.2 33.8C172.6 38.2 166.467 43.4667 159.8 49.6C153.267 55.7333 146.534 62.2667 139.6 69.2C132.667 76.1333 125.934 83.0667 119.4 90C113 96.8 107 103.2 101.4 109.2C95.9337 115.067 91.2671 120.133 87.4004 124.4C83.5337 128.667 80.8671 131.6 79.4004 133.2C77.6671 134.933 76.2004 135.6 75.0004 135.2C73.8004 134.8 73.2004 133.333 73.2004 130.8C73.2004 127.333 74.2671 123 76.4004 117.8C78.5337 112.6 81.4004 106.933 85.0004 100.8C88.6004 94.6667 92.6004 88.4 97.0004 82C101.4 75.6 105.8 69.4 110.2 63.4C114.734 57.2667 119 51.7333 123 46.8C127.134 41.8667 130.6 37.8 133.4 34.6C136.334 31.2667 138.267 29.2 139.2 28.4C139.734 28 140.6 27.7333 141.8 27.6C143 27.4667 143.067 27.7333 142 28.4C139.334 29.7333 135.667 32.6667 131 37.2C126.334 41.7333 121 47.2667 115 53.8C109 60.2 102.534 67.1333 95.6004 74.6C88.8004 82.0667 81.7337 89.4 74.4004 96.6C67.0671 103.8 59.8004 110.4 52.6004 116.4C45.5337 122.267 38.7337 127 32.2004 130.6C25.6671 134.2 19.7337 136 14.4004 136C9.06706 136 5.33372 135.067 3.20039 133.2C1.06706 131.2 0.00038898 129.2 0.00038898 127.2C0.00038898 124.533 0.733723 122.6 2.20039 121.4C3.66706 120.067 5.06706 119.4 6.40039 119.4C9.46706 119.4 11.0004 120.467 11.0004 122.6C11.0004 124.2 10.4671 125.333 9.40039 126C8.33372 126.533 7.46706 126.8 6.80039 126.8C5.60039 126.8 4.66706 126.667 4.00039 126.4C3.33372 126 3.00039 125.8 3.00039 125.8C3.00039 126.067 3.13372 126.867 3.40039 128.2C3.53372 129.533 4.40039 130.867 6.00039 132.2C7.46706 133.4 10.1337 134 14.0004 134C19.4671 134 25.5337 132.067 32.2004 128.2C39.0004 124.2 46.1337 119 53.6004 112.6C61.2004 106.2 68.8004 99.1333 76.4004 91.4C84.1337 83.5333 91.6004 75.6667 98.8004 67.8C106 59.9333 112.734 52.6667 119 46C125.267 39.3333 130.734 33.8667 135.4 29.6C140.067 25.2 143.6 22.7333 146 22.2C147.867 21.8 148.8 21.8 148.8 22.2C148.8 22.6 148.467 23.1333 147.8 23.8C146.067 25.1333 143.667 27.8 140.6 31.8C137.534 35.6667 134.067 40.4667 130.2 46.2C126.334 51.8 122.2 57.9333 117.8 64.6C113.534 71.2667 109.267 78 105 84.8C100.734 91.6 96.7337 98.1333 93.0004 104.4C89.4004 110.533 86.2671 116 83.6004 120.8C80.9337 125.6 79.0671 129.267 78.0004 131.8C77.8671 132.067 77.3337 132.467 76.4004 133C75.4671 133.533 75.0671 133.733 75.2004 133.6C75.3337 133.467 76.8004 131.8 79.6004 128.6C82.4004 125.4 86.1337 121.2 90.8004 116C95.6004 110.667 101.067 104.8 107.2 98.4C113.334 91.8667 119.8 85.1333 126.6 78.2C133.4 71.2667 140.134 64.5333 146.8 58C153.6 51.3333 160.067 45.4 166.2 40.2C172.334 34.8667 177.734 30.5333 182.4 27.2C187.2 23.8667 190.934 22.0667 193.6 21.8C195.067 21.5333 195.734 21.7333 195.6 22.4C195.6 22.9333 195.334 23.3333 194.8 23.6C191.867 25.3333 188.2 28.5333 183.8 33.2C179.4 37.7333 174.6 43.1333 169.4 49.4C164.2 55.6667 158.867 62.3333 153.4 69.4C147.934 76.4667 142.667 83.4667 137.6 90.4C132.667 97.3333 128.2 103.733 124.2 109.6C120.334 115.333 117.2 120.133 114.8 124C112.534 127.733 111.4 130 111.4 130.8C111.4 131.733 111.867 132.533 112.8 133.2C113.867 133.867 115.067 134.2 116.4 134.2C119.467 134.2 122.467 133.467 125.4 132C128.467 130.533 131.067 129.067 133.2 127.6C135.334 126 136.467 125.133 136.6 125C137.267 124.067 137.934 124.133 138.6 125.2C139.267 126.267 138.867 127.133 137.4 127.8C137.4 127.8 136.2 128.533 133.8 130C131.534 131.333 128.6 132.733 125 134.2C121.4 135.533 117.6 136.2 113.6 136.2Z" fill="black"/>
<path d="M400.96 213V211.96C403.44 211.32 404.16 209.4 404.16 202.84V184.44C404.16 179 403.28 177.88 400.96 177.08V176.2L409.76 172.36L410.4 172.92V202.84C410.4 209.4 411.12 211.32 413.6 211.96V213H400.96ZM402.4 163.08C402.4 160.52 404.32 158.6 406.8 158.6C409.36 158.6 411.2 160.52 411.2 163.08C411.2 165.56 409.28 167.48 406.8 167.48C404.32 167.48 402.4 165.56 402.4 163.08ZM414.929 213V211.96C417.409 211.32 418.129 209.4 418.129 202.84V184.44C418.129 178.92 417.089 177.96 414.929 177.08V176.2L423.649 172.36L424.369 172.92V179.72C429.169 175.88 435.169 172.44 440.929 172.44C446.929 172.44 450.689 174.92 452.049 179.96C456.929 176.12 462.929 172.44 469.009 172.44C476.769 172.44 480.769 176.68 480.769 185.72V202.84C480.769 209.4 481.489 211.32 483.969 211.96V213H471.329V211.96C473.809 211.32 474.529 209.4 474.529 202.84V187.16C474.529 179.16 471.729 175.08 465.409 175.08C460.849 175.08 456.769 177.56 452.289 181C452.609 182.36 452.769 183.88 452.769 185.72V202.84C452.769 209.4 453.489 211.32 455.969 211.96V213H443.329V211.96C445.809 211.32 446.529 209.4 446.529 202.84V187.16C446.529 179.08 443.489 175.08 437.409 175.08C432.849 175.08 428.769 177.56 424.369 180.84V202.84C424.369 209.4 425.089 211.32 427.569 211.96V213H414.929ZM505.89 213.72C501.41 213.72 497.41 212.2 494.29 210.2V224.44C494.29 231 495.01 232.92 497.49 233.56V234.6H484.85V233.56C487.33 232.92 488.05 231 488.05 224.44V184.44C488.05 178.92 487.01 177.96 484.85 177.08V176.2L493.57 172.36L494.29 172.92V178.76C498.69 175.56 504.13 172.44 510.29 172.44C519.57 172.44 526.53 180.12 526.53 191.96C526.53 203.08 519.09 213.72 505.89 213.72ZM494.29 180.04V199.8C494.29 205.24 501.25 212.2 508.45 212.2C516.85 212.2 520.77 205.88 520.77 196.6C520.77 187.72 517.25 175.16 506.05 175.16C501.33 175.16 497.73 177.48 494.29 180.04ZM528.19 213V211.96C530.67 211.32 531.39 209.4 531.39 202.84V160.44C531.39 154.92 530.35 153.96 528.19 153.08V152.2L536.91 148.36L537.63 148.92V202.84C537.63 209.4 538.35 211.32 540.83 211.96V213H528.19ZM561.975 213.8C553.175 213.8 543.015 207.4 543.015 194.2C543.015 181.16 552.855 172.44 564.055 172.44C574.055 172.44 579.975 179 580.215 186.6H548.935C548.775 187.8 548.695 189 548.695 190.28C548.695 201.16 555.495 208.76 565.895 208.76C572.055 208.76 576.375 205.96 580.135 201.8L580.855 202.52C576.775 208.12 570.535 213.8 561.975 213.8ZM549.175 185.56H573.815C572.935 180.2 568.695 173.88 561.415 173.88C554.615 173.88 550.455 178.84 549.175 185.56Z" fill="black"/>
<path d="M337.72 218.36C332.12 218.36 327.88 217.32 325 215.24C322.12 213.16 320.68 210.36 320.68 206.84C320.68 204.28 321.56 202.04 323.32 200.12C324.92 198.04 326.84 196.44 329.08 195.32C331.32 194.04 333.08 193.4 334.36 193.4C336.12 193.4 337.32 193.8 337.96 194.6C338.44 195.24 338.68 195.96 338.68 196.76C338.68 198.04 337.96 199.08 336.52 199.88C334.92 200.68 333.64 201.08 332.68 201.08C331.56 201.08 330.6 200.76 329.8 200.12C328.84 199.32 328.36 198.92 328.36 198.92C327.56 199.08 326.44 199.96 325 201.56C323.56 203.16 322.84 204.92 322.84 206.84C322.84 208.76 323.88 210.6 325.96 212.36C328.04 214.12 331.4 215 336.04 215C340.84 215 345.4 213.4 349.72 210.2C354.2 207 357.88 202.92 360.76 197.96C363.64 193 365.08 187.96 365.08 182.84C365.08 181.08 365.08 178.76 365.08 175.88C365.08 172.84 365.08 170.36 365.08 168.44C365.08 166.04 365.48 163.32 366.28 160.28C367.08 157.08 367.96 154.12 368.92 151.4C370.04 148.68 370.92 147 371.56 146.36C372.84 145.24 373.8 144.92 374.44 145.4C375.08 145.88 375.24 146.36 374.92 146.84C374.76 147 373.72 148.28 371.8 150.68C369.88 152.92 367.48 155.72 364.6 159.08C361.72 162.44 358.84 165.8 355.96 169.16C353.08 172.52 350.52 175.48 348.28 178.04C346.2 180.6 345 182.12 344.68 182.6C343.88 183.72 343.16 183.96 342.52 183.32C341.88 182.68 342.04 181.88 343 180.92C344.76 178.68 346.92 176.04 349.48 173C352.2 169.8 354.92 166.68 357.64 163.64C360.36 160.6 362.68 158.04 364.6 155.96C366.68 153.72 367.8 152.44 367.96 152.12C368.44 151.48 368.84 150.36 369.16 148.76C369.64 147.16 370.2 145.64 370.84 144.2C371.64 142.76 372.6 142.04 373.72 142.04C376.44 142.04 377.8 143 377.8 144.92C377.8 146.36 376.68 148.12 374.44 150.2C372.36 152.28 371.16 153.96 370.84 155.24C370.36 157.16 370.36 159.88 370.84 163.4C371.48 166.76 372.12 170.6 372.76 174.92C373.56 179.24 373.96 183.8 373.96 188.6C373.96 195 372.68 200.2 370.12 204.2C367.56 208.04 364.36 211 360.52 213.08C356.68 215.16 352.68 216.52 348.52 217.16C344.52 217.96 340.92 218.36 337.72 218.36ZM374.68 201.8C370.52 201.8 367.8 201 366.52 199.4C365.4 197.8 365 195.96 365.32 193.88C365.8 191.64 366.36 189.64 367 187.88L369.4 188.12C368.92 189.72 368.44 191.4 367.96 193.16C367.64 194.92 367.88 196.44 368.68 197.72C369.48 199 371.56 199.64 374.92 199.64C377.32 199.64 380.04 198.52 383.08 196.28C386.12 194.04 389.08 191.32 391.96 188.12C395 184.92 397.56 181.8 399.64 178.76L401.8 180.44C399.72 183 397.16 185.96 394.12 189.32C391.24 192.68 388.12 195.64 384.76 198.2C381.4 200.6 378.04 201.8 374.68 201.8Z" fill="black"/>
<path d="M175.948 190.324C173.248 190.324 170.764 189.064 169.468 187.66L168.28 190H167.92V166.348C167.92 163.864 167.452 163.432 166.48 163.036V162.64L170.404 160.912L170.728 161.164V174.196C172.636 172.9 174.976 171.748 177.46 171.748C182.068 171.748 185.308 175.492 185.308 180.532C185.308 185.536 181.996 190.324 175.948 190.324ZM170.728 174.736V183.916C170.728 186.508 173.788 189.604 177.1 189.604C180.844 189.604 182.644 186.796 182.644 182.62C182.644 178.624 180.844 172.936 175.768 172.936C173.896 172.936 172.204 173.728 170.728 174.736ZM196.862 190.36C192.29 190.36 187.43 187.516 187.43 181.252C187.43 175.636 191.93 171.748 196.862 171.748C201.326 171.748 206.258 174.448 206.258 180.892C206.258 187.048 201.11 190.36 196.862 190.36ZM190.202 179.2C190.202 183.772 193.154 189.604 197.942 189.604C201.83 189.604 203.522 186.508 203.522 183.016C203.522 178.984 200.642 172.432 195.89 172.432H195.53C191.894 172.54 190.202 175.6 190.202 179.2ZM208.582 190V189.532C209.698 189.244 210.022 188.38 210.022 185.428V177.148C210.022 174.664 209.554 174.232 208.582 173.836V173.44L212.506 171.712L212.83 171.964V176.464C213.982 173.62 216.43 171.748 219.562 171.748C221.002 171.748 221.902 172.108 221.902 172.72C221.902 173.476 221.11 174.772 219.814 174.772C218.842 174.772 217.474 174.376 215.314 173.764C214.306 174.52 212.974 176.536 212.866 178.264H212.83V185.428C212.83 188.38 213.154 189.244 214.27 189.532V190H208.582ZM223.34 190V189.532C224.456 189.244 224.78 188.38 224.78 185.428V177.148C224.78 174.7 224.384 174.196 223.34 173.836V173.44L227.3 171.712L227.588 171.964V175.06C229.676 173.368 232.448 171.748 235.22 171.748C238.784 171.748 240.908 173.8 240.908 178.012V185.428C240.908 188.38 241.232 189.244 242.348 189.532V190H236.66V189.532C237.776 189.244 238.1 188.38 238.1 185.428V178.732C238.1 174.988 236.516 172.936 233.348 172.936C231.332 172.936 229.424 174.088 227.588 175.636V185.428C227.588 188.38 227.912 189.244 229.028 189.532V190H223.34Z" fill="black"/>
</svg>
