<svg width="136" height="36" viewBox="0 0 136 36" fill="none" xmlns="http://www.w3.org/2000/svg">
<path d="M1.24805 25.875C0.826172 25.875 0.509766 25.7871 0.298828 25.6113C0.0996094 25.4473 0 25.2422 0 24.9961C0 24.7031 0.123047 24.3984 0.369141 24.082C0.615234 23.7656 0.960938 23.5195 1.40625 23.3438C1.94531 23.1328 2.53125 22.6699 3.16406 21.9551C3.80859 21.2285 4.4707 20.3496 5.15039 19.3184C5.83008 18.2871 6.51562 17.1387 7.20703 15.873C7.91016 14.6074 8.58398 13.3242 9.22852 12.0234C9.88477 10.7227 10.4941 9.45117 11.0566 8.20898C11.6309 6.95508 12.1406 5.82422 12.5859 4.81641C13.0664 3.71484 13.4414 2.84766 13.7109 2.21484C13.9805 1.58203 14.1504 1.18945 14.2207 1.03711C14.3848 0.673828 14.6133 0.410156 14.9062 0.246094C15.1992 0.0820313 15.498 0 15.8027 0C16.2246 0 16.5469 0.117188 16.7695 0.351562C16.9922 0.574219 17.1211 0.978516 17.1562 1.56445C17.2266 2.75977 17.2793 3.80273 17.3145 4.69336C17.3496 5.58398 17.373 6.48047 17.3848 7.38281C17.4082 8.27344 17.4199 9.3457 17.4199 10.5996V13.043C17.4199 13.4883 17.4082 13.9629 17.3848 14.4668C17.373 14.959 17.3672 15.4805 17.3672 16.0312C18.7734 13.4766 20.0156 11.2207 21.0938 9.26367C22.1836 7.30664 23.1328 5.67188 23.9414 4.35938C24.6094 3.24609 25.2422 2.30273 25.8398 1.5293C26.4375 0.755859 26.918 0.369141 27.2812 0.369141H27.4043L27.5098 0.351562H27.6152C27.8965 0.351562 28.1191 0.527344 28.2832 0.878906C28.4473 1.23047 28.5293 1.6875 28.5293 2.25C28.459 3.08203 28.3418 4.20703 28.1777 5.625C28.0137 7.03125 27.8203 8.64258 27.5977 10.459C27.3867 12.1816 27.1758 13.875 26.9648 15.5391C26.7656 17.2031 26.6016 18.6797 26.4727 19.9688C26.4609 20.0508 26.4492 20.127 26.4375 20.1973C26.4258 20.2676 26.4258 20.3438 26.4375 20.4258L26.6309 22.7637C26.6777 23.2324 26.6426 23.7012 26.5254 24.1699C26.4082 24.627 26.1504 25.0078 25.752 25.3125C25.3652 25.6172 24.7734 25.7695 23.9766 25.7695C23.6602 25.7695 23.4082 25.6465 23.2207 25.4004C23.0332 25.166 22.9395 24.7383 22.9395 24.1172C23.0332 23.2031 23.1562 22.084 23.3086 20.7598C23.4609 19.4355 23.625 18.0176 23.8008 16.5059C23.9883 14.9941 24.1758 13.5 24.3633 12.0234C24.5508 10.5469 24.7266 9.19922 24.8906 7.98047L21.2168 15.0117C20.6426 16.1016 20.1152 17.0859 19.6348 17.9648C19.166 18.8438 18.7852 19.5527 18.4922 20.0918C17.9648 20.8066 17.4316 21.4395 16.8926 21.9902C16.3535 22.5293 15.8379 22.7988 15.3457 22.7988C14.8652 22.7988 14.5781 22.6699 14.4844 22.4121C14.3906 22.1426 14.3379 21.8789 14.3262 21.6211C14.2559 19.957 14.2031 18.2812 14.168 16.5938C14.1445 14.8945 14.1328 13.2246 14.1328 11.584V9.28125C13.418 10.9102 12.6211 12.5801 11.7422 14.291C10.875 16.002 9.97266 17.6133 9.03516 19.125C8.09766 20.6484 7.14844 21.9727 6.1875 23.0977C5.22656 24.2227 4.33008 24.9609 3.49805 25.3125C3.00586 25.5117 2.57812 25.6523 2.21484 25.7344C1.85156 25.8281 1.5293 25.875 1.24805 25.875ZM34.8912 25.8047C34.4927 25.8047 34.0181 25.6934 33.4673 25.4707C32.9166 25.248 32.4302 24.8789 32.0084 24.3633C31.5982 23.8477 31.3931 23.1562 31.3931 22.2891C31.3931 21.5625 31.5572 20.6543 31.8853 19.5645C32.2134 18.4746 32.7291 17.4023 33.4322 16.3477C34.1353 15.2695 35.0318 14.373 36.1216 13.6582C37.2232 12.9434 38.4947 12.5859 39.9361 12.5859C40.4517 12.5859 40.9029 12.6504 41.2896 12.7793C41.6763 12.9082 42.0045 13.0488 42.274 13.2012C42.4263 13.2949 42.567 13.3945 42.6959 13.5C42.8365 13.5938 42.9654 13.6992 43.0826 13.8164L43.6978 13.5176C43.8736 13.4355 44.0552 13.3652 44.2427 13.3066C44.442 13.2363 44.6119 13.2012 44.7525 13.2012C45.1978 13.2012 45.5611 13.3242 45.8423 13.5703C46.1236 13.8164 46.2642 14.0859 46.2642 14.3789C46.2642 14.4727 46.2584 14.5371 46.2466 14.5723C46.1646 14.9004 46.0123 15.3516 45.7896 15.9258C45.5787 16.5 45.3502 17.1387 45.1041 17.8418C44.858 18.5215 44.647 19.1777 44.4712 19.8105C44.3072 20.4434 44.2252 20.9648 44.2252 21.375C44.2252 21.7266 44.2837 22.0195 44.4009 22.2539C44.5181 22.4766 44.7173 22.5879 44.9986 22.5879C45.3384 22.5879 45.7955 22.3945 46.3697 22.0078C46.9439 21.6094 47.5357 21.1406 48.1451 20.6016C48.4732 20.3086 48.813 19.998 49.1646 19.6699C49.5162 19.3301 49.8736 18.9727 50.2369 18.5977C50.4244 18.4453 50.606 18.3691 50.7818 18.3691C51.0162 18.3691 51.2095 18.4863 51.3619 18.7207C51.5259 18.9434 51.608 19.1953 51.608 19.4766C51.608 19.8047 51.4966 20.0801 51.274 20.3027C50.8052 20.7363 50.3248 21.1992 49.8326 21.6914C49.3404 22.1836 48.6607 22.7871 47.7935 23.502C47.0201 24.1348 46.2232 24.6797 45.4029 25.1367C44.5826 25.582 43.8443 25.8047 43.188 25.8047C42.3677 25.8047 41.7701 25.4883 41.3951 24.8555C41.0201 24.2109 40.8326 23.5254 40.8326 22.7988C40.8326 22.2715 40.9087 21.8027 41.0611 21.3926C40.5806 22.0371 40.0123 22.7051 39.356 23.3965C38.6998 24.0762 37.9908 24.6504 37.2291 25.1191C36.4673 25.5762 35.688 25.8047 34.8912 25.8047ZM36.2974 22.7109C36.6724 22.7109 37.1412 22.4707 37.7037 21.9902C38.2779 21.5098 38.8287 20.9473 39.356 20.3027C39.942 19.5996 40.4048 18.9609 40.7447 18.3867C41.0845 17.8125 41.2545 17.4258 41.2545 17.2266C41.2545 16.7812 40.9966 16.4297 40.481 16.1719C39.9654 15.9023 39.5025 15.7676 39.0923 15.7676C38.3658 15.7676 37.6744 16.002 37.0181 16.4707C36.3736 16.9395 35.8462 17.543 35.4361 18.2812C35.0259 19.0078 34.8209 19.7637 34.8209 20.5488C34.8209 21.0059 34.9029 21.4805 35.067 21.9727C35.2427 22.4648 35.6529 22.7109 36.2974 22.7109ZM53.505 35.8066C53.048 35.8066 52.6847 35.6484 52.4152 35.332C52.1573 35.0156 52.0284 34.6348 52.0284 34.1895C52.0284 33.7207 52.1398 33.1699 52.3624 32.5371C52.5968 31.916 52.9132 31.248 53.3116 30.5332C54.1202 29.0918 55.2452 27.5332 56.6866 25.8574L58.8663 23.0801C57.964 23.9121 57.1085 24.5039 56.2999 24.8555C55.4913 25.1953 54.8175 25.3652 54.2784 25.3652C53.3409 25.3652 52.5616 24.9551 51.9405 24.1348C51.3312 23.3145 51.0265 22.2832 51.0265 21.041C51.0265 19.752 51.2726 18.5859 51.7648 17.543C52.2687 16.5 52.9132 15.6094 53.6984 14.8711C54.4718 14.1445 55.3273 13.582 56.2648 13.1836C57.214 12.7852 58.1398 12.5859 59.0421 12.5859C59.5577 12.5859 60.0089 12.6504 60.3956 12.7793C60.7823 12.9082 61.1105 13.0488 61.38 13.2012C61.5323 13.2949 61.673 13.3945 61.8019 13.5C61.9425 13.5938 62.0714 13.6992 62.1886 13.8164C62.3761 13.6875 62.5519 13.5879 62.7159 13.5176C62.88 13.4355 63.0616 13.3652 63.2609 13.3066C63.4601 13.2363 63.6593 13.2012 63.8585 13.2012C64.3741 13.2012 64.7726 13.3066 65.0538 13.5176C65.3351 13.7285 65.4757 13.9805 65.4757 14.2734C65.4757 14.4258 65.4347 14.5781 65.3527 14.7305L61.2394 22.5176L61.5734 22.2188C62.9562 21.4102 64.0929 20.7773 64.9835 20.3203C65.8741 19.8516 66.5831 19.5059 67.1105 19.2832C67.5206 19.1074 67.8605 18.9844 68.13 18.9141C68.3995 18.832 68.5812 18.791 68.6749 18.791C68.9445 18.791 69.1495 18.8965 69.2902 19.1074C69.4425 19.3066 69.5187 19.5586 69.5187 19.8633C69.5187 20.2031 69.4191 20.5488 69.2198 20.9004C69.0323 21.252 68.7394 21.5039 68.3409 21.6562C67.6495 22.0078 66.8175 22.4004 65.8448 22.834C64.8839 23.2559 63.8761 23.7539 62.8214 24.3281C61.7784 24.8906 60.7882 25.5645 59.8507 26.3496L56.4405 32.5195C55.9015 33.8086 55.421 34.6875 54.9991 35.1562C54.6124 35.5898 54.1144 35.8066 53.505 35.8066ZM55.5792 22.4121C55.9425 22.4121 56.3995 22.1895 56.9503 21.7441C57.5011 21.2871 58.0284 20.7539 58.5323 20.1445C59.048 19.5352 59.4816 18.9551 59.8331 18.4043C60.1847 17.8535 60.3605 17.4609 60.3605 17.2266C60.3605 16.7109 60.1144 16.3242 59.6222 16.0664C59.1417 15.8086 58.7257 15.6797 58.3741 15.6797C57.6359 15.6797 56.9386 15.9141 56.2823 16.3828C55.6378 16.8398 55.1105 17.4434 54.7003 18.1934C54.3019 18.9316 54.1027 19.7168 54.1027 20.5488C54.1027 20.9473 54.1847 21.3574 54.3488 21.7793C54.5128 22.2012 54.923 22.4121 55.5792 22.4121ZM68.6911 25.8047C68.2809 25.8047 67.9587 25.6758 67.7243 25.418C67.4899 25.1602 67.3727 24.8438 67.3727 24.4688C67.3727 24.1641 67.5485 23.5957 67.9001 22.7637C68.2516 21.9199 68.6618 21.0176 69.1305 20.0566C69.7282 18.8027 70.2555 17.7188 70.7126 16.8047C71.1696 15.8789 71.5095 15.1758 71.7321 14.6953C71.9665 14.1914 72.2595 13.8164 72.611 13.5703C72.9626 13.3242 73.3083 13.2012 73.6481 13.2012C73.9294 13.2012 74.1813 13.3066 74.404 13.5176C74.6266 13.7168 74.738 14.0156 74.738 14.4141C74.738 14.5664 74.7204 14.7305 74.6852 14.9062C74.6501 15.082 74.5856 15.2695 74.4919 15.4688C74.8552 15.0117 75.3942 14.5664 76.1091 14.1328C76.8239 13.6875 77.5973 13.3184 78.4294 13.0254C79.2614 12.7324 80.029 12.5859 80.7321 12.5859C81.3532 12.5859 81.8688 12.7383 82.279 13.043C82.7009 13.3359 82.9118 13.8398 82.9118 14.5547C82.9118 15.1641 82.777 15.8262 82.5075 16.541C82.238 17.2441 81.9157 17.9238 81.5407 18.5801C81.1423 19.2715 80.7673 19.8809 80.4157 20.4082C80.0759 20.9238 79.8122 21.3516 79.6247 21.6914C79.4723 21.8789 79.3962 22.0957 79.3962 22.3418C79.3962 22.5762 79.5192 22.6934 79.7653 22.6934C79.8473 22.6934 79.9411 22.6875 80.0466 22.6758C80.152 22.6523 80.2809 22.5879 80.4333 22.4824C81.3122 22.1543 82.1852 21.7383 83.0524 21.2344C83.9313 20.7305 84.7341 20.209 85.4606 19.6699C86.1989 19.1309 86.7907 18.6562 87.236 18.2461C87.4235 18.0938 87.6052 18.0176 87.7809 18.0176C88.2028 18.0176 88.4137 18.2871 88.4137 18.8262C88.4137 19.1895 88.2966 19.5938 88.0622 20.0391C87.8395 20.4844 87.4821 20.9004 86.9899 21.2871C86.1345 21.8965 85.3317 22.4648 84.5817 22.9922C83.8434 23.5078 83.0583 23.9766 82.2262 24.3984C81.3942 24.8203 80.404 25.1953 79.2555 25.5234C78.6579 25.7109 78.1481 25.8047 77.7262 25.8047C76.5309 25.8047 75.9333 25.1484 75.9333 23.8359C75.9333 23.7539 75.9333 23.6777 75.9333 23.6074C75.945 23.5254 75.9567 23.4375 75.9684 23.3438C76.0036 22.8164 76.1911 22.207 76.5309 21.5156C76.8708 20.8125 77.2399 20.1211 77.6384 19.4414C78.0368 18.7852 78.3942 18.1699 78.7106 17.5957C79.027 17.0215 79.1852 16.5938 79.1852 16.3125C79.1852 15.8906 78.986 15.6797 78.5876 15.6797C77.8493 15.6797 77.1403 15.8965 76.4606 16.3301C75.7927 16.7637 75.1598 17.3145 74.5622 17.9824C73.9762 18.6387 73.4372 19.3301 72.945 20.0566C72.4528 20.7715 72.0192 21.4219 71.6442 22.0078C71.3747 22.4531 71.111 22.9746 70.8532 23.5723C70.6071 24.1699 70.3141 24.6914 69.9743 25.1367C69.6462 25.582 69.2184 25.8047 68.6911 25.8047ZM89.1858 25.8047C88.4241 25.8047 87.7385 25.623 87.1291 25.2598C86.5315 24.8965 86.2327 24.2109 86.2327 23.2031C86.2327 23.1211 86.2678 22.8867 86.3381 22.5C86.4202 22.1133 86.5608 21.6211 86.76 21.0234C87.0061 20.2852 87.3928 19.3242 87.9202 18.1406C88.4475 16.957 89.1916 15.5215 90.1526 13.834C90.3987 13.3887 90.6799 13.0723 90.9963 12.8848C91.3245 12.6855 91.676 12.5859 92.051 12.5859C92.426 12.5859 92.7717 12.6797 93.0881 12.8672C93.4045 13.043 93.5627 13.3008 93.5627 13.6406C93.5627 13.7578 93.5452 13.8691 93.51 13.9746C93.428 14.2441 93.2053 14.6602 92.842 15.2227C92.4905 15.7852 92.092 16.4473 91.6467 17.209C91.2131 17.9238 90.8205 18.6914 90.469 19.5117C90.1291 20.332 89.9416 21.1055 89.9065 21.832C89.9065 22.043 89.9651 22.2363 90.0823 22.4121C90.1995 22.5879 90.3928 22.6758 90.6623 22.6758C91.4241 22.6758 92.1448 22.4707 92.8245 22.0605C93.5159 21.6387 94.1604 21.1113 94.758 20.4785C95.3557 19.834 95.8889 19.1543 96.3577 18.4395C96.8264 17.7246 97.219 17.0684 97.5354 16.4707C97.8284 15.9434 98.0862 15.3809 98.3088 14.7832C98.5315 14.1738 98.7952 13.6523 99.0998 13.2188C99.4045 12.7852 99.8147 12.5684 100.33 12.5684C100.752 12.5684 101.086 12.7031 101.332 12.9727C101.578 13.2422 101.701 13.5645 101.701 13.9395C101.701 14.2441 101.531 14.7363 101.192 15.416C100.864 16.084 100.494 16.8105 100.084 17.5957C99.6506 18.416 99.2698 19.2539 98.9416 20.1094C98.6252 20.9531 98.467 21.7031 98.467 22.3594C98.467 22.7812 98.7248 22.9922 99.2405 22.9922C100.026 22.9922 101.045 22.5879 102.299 21.7793C102.885 21.4043 103.471 20.959 104.057 20.4434C104.655 19.9277 105.182 19.3711 105.639 18.7734L105.815 21.1641C105.03 22.0664 104.08 22.9043 102.967 23.6777C101.865 24.4395 100.793 25.0137 99.7502 25.4004C98.6721 25.8105 97.7698 25.9043 97.0432 25.6816C96.3166 25.459 95.9534 24.8027 95.9534 23.7129C95.9534 23.1621 96.0471 22.5352 96.2346 21.832C95.8362 22.4297 95.303 23.0391 94.635 23.6602C93.967 24.2695 93.176 24.7793 92.262 25.1895C91.3596 25.5996 90.3342 25.8047 89.1858 25.8047ZM106.411 25.8047C105.45 25.8047 104.788 25.5645 104.425 25.084C104.073 24.6035 103.897 24.0176 103.897 23.3262C103.897 22.752 103.979 22.166 104.143 21.5684C104.319 20.959 104.524 20.4023 104.759 19.8984C105.169 18.9844 105.585 18.0762 106.007 17.1738C106.429 16.2715 106.815 15.4453 107.167 14.6953L112.493 3.35742C112.762 2.77148 113.167 2.39062 113.706 2.21484C114.245 2.03906 114.737 2.05664 115.182 2.26758C115.639 2.4668 115.868 2.83594 115.868 3.375C115.868 3.58594 115.815 3.80859 115.71 4.04297C115.616 4.27734 115.493 4.5293 115.341 4.79883C114.919 5.5957 114.38 6.64453 113.723 7.94531C113.079 9.24609 112.364 10.7109 111.579 12.3398C110.723 14.1328 110.003 15.6387 109.417 16.8574C108.843 18.0645 108.304 19.207 107.8 20.2852C107.671 20.5547 107.542 20.8711 107.413 21.2344C107.296 21.5859 107.237 21.9023 107.237 22.1836C107.237 22.5703 107.407 22.7637 107.747 22.7637C108.122 22.7637 108.62 22.6113 109.241 22.3066C109.874 21.9902 110.53 21.5977 111.21 21.1289C111.901 20.6719 112.569 20.1973 113.214 19.7051C113.858 19.2012 114.456 18.7148 115.007 18.2461C115.194 18.0938 115.417 18.0176 115.675 18.0176C116.214 18.0176 116.483 18.3164 116.483 18.9141C116.483 19.1602 116.401 19.4355 116.237 19.7402C116.073 20.0449 115.786 20.3438 115.376 20.6367C114.626 21.3281 113.87 21.9844 113.108 22.6055C112.358 23.2148 111.602 23.7598 110.841 24.2402C110.091 24.709 109.341 25.084 108.591 25.3652C107.841 25.6582 107.114 25.8047 106.411 25.8047ZM118.31 25.8047C117.911 25.8047 117.437 25.6934 116.886 25.4707C116.335 25.248 115.849 24.8789 115.427 24.3633C115.017 23.8477 114.812 23.1562 114.812 22.2891C114.812 21.5625 114.976 20.6543 115.304 19.5645C115.632 18.4746 116.148 17.4023 116.851 16.3477C117.554 15.2695 118.451 14.373 119.54 13.6582C120.642 12.9434 121.913 12.5859 123.355 12.5859C123.87 12.5859 124.322 12.6504 124.708 12.7793C125.095 12.9082 125.423 13.0488 125.693 13.2012C125.845 13.2949 125.986 13.3945 126.115 13.5C126.255 13.5938 126.384 13.6992 126.501 13.8164L127.117 13.5176C127.292 13.4355 127.474 13.3652 127.661 13.3066C127.861 13.2363 128.031 13.2012 128.171 13.2012C128.617 13.2012 128.98 13.3242 129.261 13.5703C129.542 13.8164 129.683 14.0859 129.683 14.3789C129.683 14.4727 129.677 14.5371 129.665 14.5723C129.583 14.9004 129.431 15.3516 129.208 15.9258C128.997 16.5 128.769 17.1387 128.523 17.8418C128.277 18.5215 128.066 19.1777 127.89 19.8105C127.726 20.4434 127.644 20.9648 127.644 21.375C127.644 21.7266 127.702 22.0195 127.82 22.2539C127.937 22.4766 128.136 22.5879 128.417 22.5879C128.757 22.5879 129.214 22.3945 129.788 22.0078C130.363 21.6094 130.954 21.1406 131.564 20.6016C131.892 20.3086 132.232 19.998 132.583 19.6699C132.935 19.3301 133.292 18.9727 133.656 18.5977C133.843 18.4453 134.025 18.3691 134.201 18.3691C134.435 18.3691 134.628 18.4863 134.781 18.7207C134.945 18.9434 135.027 19.1953 135.027 19.4766C135.027 19.8047 134.915 20.0801 134.693 20.3027C134.224 20.7363 133.744 21.1992 133.251 21.6914C132.759 22.1836 132.079 22.7871 131.212 23.502C130.439 24.1348 129.642 24.6797 128.822 25.1367C128.001 25.582 127.263 25.8047 126.607 25.8047C125.786 25.8047 125.189 25.4883 124.814 24.8555C124.439 24.2109 124.251 23.5254 124.251 22.7988C124.251 22.2715 124.327 21.8027 124.48 21.3926C123.999 22.0371 123.431 22.7051 122.775 23.3965C122.119 24.0762 121.41 24.6504 120.648 25.1191C119.886 25.5762 119.107 25.8047 118.31 25.8047ZM119.716 22.7109C120.091 22.7109 120.56 22.4707 121.122 21.9902C121.697 21.5098 122.247 20.9473 122.775 20.3027C123.361 19.5996 123.824 18.9609 124.163 18.3867C124.503 17.8125 124.673 17.4258 124.673 17.2266C124.673 16.7812 124.415 16.4297 123.9 16.1719C123.384 15.9023 122.921 15.7676 122.511 15.7676C121.785 15.7676 121.093 16.002 120.437 16.4707C119.792 16.9395 119.265 17.543 118.855 18.2812C118.445 19.0078 118.24 19.7637 118.24 20.5488C118.24 21.0059 118.322 21.4805 118.486 21.9727C118.661 22.4648 119.072 22.7109 119.716 22.7109Z" fill="black"/>
</svg>
